<svg width="18" height="18" viewBox="0 0 18 18" fill="none" xmlns="http://www.w3.org/2000/svg">
    <g clip-path="url(#clip0_1963_73)">
    <path d="M17.64 9.20456C17.64 8.56637 17.5827 7.95274 17.4764 7.36365H9V10.845H13.8436C13.635 11.97 13.0009 12.9232 12.0477 13.5614V15.8196H14.9564C16.6582 14.2527 17.64 11.9455 17.64 9.20456Z" fill="#4285F4"/>
    <path d="M8.99993 18C11.4299 18 13.4672 17.1941 14.9563 15.8195L12.0477 13.5614C11.2417 14.1014 10.2108 14.4204 8.99993 14.4204C6.65584 14.4204 4.67175 12.8373 3.96402 10.71H0.957207V13.0418C2.43812 15.9832 5.48175 18 8.99993 18Z" fill="#34A853"/>
    <path d="M3.96409 10.71C3.78409 10.17 3.68182 9.59316 3.68182 8.99998C3.68182 8.4068 3.78409 7.82998 3.96409 7.28998V4.95816H0.957273C0.347727 6.17316 0 7.54771 0 8.99998C0 10.4523 0.347727 11.8268 0.957273 13.0418L3.96409 10.71Z" fill="#FBBC05"/>
    <path d="M8.99993 3.57955C10.3213 3.57955 11.5077 4.03364 12.4404 4.92545L15.0218 2.34409C13.4631 0.891818 11.4258 0 8.99993 0C5.48175 0 2.43812 2.01682 0.957207 4.95818L3.96402 7.29C4.67175 5.16273 6.65584 3.57955 8.99993 3.57955Z" fill="#EA4335"/>
    </g>
    <defs>
    <clipPath id="clip0_1963_73">
    <rect width="18" height="18" fill="white"/>
    </clipPath>
    </defs>
    </svg>
    